# Blender v3.1.2 OBJ File: ''
# www.blender.org
mtllib cursor.mtl
o Plane
v -0.576082 0.000000 0.576082
v 0.576082 0.000000 0.576082
v -0.576082 0.000000 -0.576082
v 0.576082 0.000000 -0.576082
v -0.504589 0.000000 -0.504589
v -0.504589 0.000000 0.504589
v 0.504589 0.000000 0.504589
v 0.504589 0.000000 -0.504589
vt 0.062138 0.937862
vt 0.937862 0.937862
vt 0.999900 0.999900
vt 0.000100 0.999900
vt 0.062138 0.062138
vt 0.000100 0.000100
vt 0.937862 0.062138
vt 0.999900 0.000100
vn 0.0000 1.0000 0.0000
usemtl Material.001
s off
f 6/1/1 5/2/1 3/3/1 1/4/1
f 7/5/1 6/1/1 1/4/1 2/6/1
f 8/7/1 7/5/1 2/6/1 4/8/1
f 5/2/1 8/7/1 4/8/1 3/3/1
